<svg viewBox="0 0 192 192" xmlns="http://www.w3.org/2000/svg">
  <!-- Background -->
  <rect width="192" height="192" fill="#166534" rx="48"/>
  
  <!-- Shield -->
  <path d="M96 30 L130 50 L130 95 Q130 130 96 150 Q62 130 62 95 L62 50 Z" fill="#FFFFFF" opacity="0.95"/>
  
  <!-- Rice Stalk inside shield -->
  <g transform="translate(96, 75)">
    <!-- Main stem -->
    <line x1="0" y1="30" x2="0" y2="-20" stroke="#166534" stroke-width="3" stroke-linecap="round"/>
    
    <!-- Rice grain head -->
    <circle cx="0" cy="-25" r="8" fill="#F59E0B"/>
    
    <!-- Left leaf -->
    <path d="M -8 10 Q -15 5 -12 -5" stroke="#166534" stroke-width="2.5" fill="none" stroke-linecap="round"/>
    
    <!-- Right leaf -->
    <path d="M 8 10 Q 15 5 12 -5" stroke="#166534" stroke-width="2.5" fill="none" stroke-linecap="round"/>
    
    <!-- Lower leaf left -->
    <path d="M -6 25 Q -12 20 -10 10" stroke="#166534" stroke-width="2" fill="none" stroke-linecap="round"/>
    
    <!-- Lower leaf right -->
    <path d="M 6 25 Q 12 20 10 10" stroke="#166534" stroke-width="2" fill="none" stroke-linecap="round"/>
  </g>
  
  <!-- Checkmark -->
  <g transform="translate(140, 140)" stroke="#F59E0B" stroke-width="4" fill="none" stroke-linecap="round" stroke-linejoin="round">
    <circle cx="0" cy="0" r="12" fill="#FFFFFF"/>
    <path d="M -6 0 L -2 4 L 6 -4"/>
  </g>
</svg>
